<svg xmlns="http://www.w3.org/2000/svg" xmlns:xlink="http://www.w3.org/1999/xlink" viewBox="0 0 1366 764"><defs><style>.a{clip-path:url(#n);}.b{fill:#4f7426;}.c{fill:#608832;}.d{fill:#719c40;}.e{fill:#95c550;}.f{fill:#a0d15a;}.g{fill:#afde6c;}.h{fill:#e1f6c1;}.i{filter:url(#k);}.j{filter:url(#i);}.k{filter:url(#g);}.l{filter:url(#e);}.m{filter:url(#c);}.n{filter:url(#a);}</style><filter id="a" x="-181.159" y="-163.67" width="1090.497" height="1236.571" filterUnits="userSpaceOnUse"><feOffset dx="3" dy="3" input="SourceAlpha"/><feGaussianBlur stdDeviation="3" result="b"/><feFlood flood-opacity="0.161"/><feComposite operator="in" in2="b"/><feComposite in="SourceGraphic"/></filter><filter id="c" x="-308.159" y="-153.67" width="1090.497" height="1236.571" filterUnits="userSpaceOnUse"><feOffset dx="3" dy="3" input="SourceAlpha"/><feGaussianBlur stdDeviation="3" result="d"/><feFlood flood-opacity="0.161"/><feComposite operator="in" in2="d"/><feComposite in="SourceGraphic"/></filter><filter id="e" x="-427.159" y="-139.67" width="1090.497" height="1236.571" filterUnits="userSpaceOnUse"><feOffset dx="3" dy="3" input="SourceAlpha"/><feGaussianBlur stdDeviation="3" result="f"/><feFlood flood-opacity="0.161"/><feComposite operator="in" in2="f"/><feComposite in="SourceGraphic"/></filter><filter id="g" x="587.358" y="-163.518" width="1060.205" height="1243.213" filterUnits="userSpaceOnUse"><feOffset dx="-10" dy="3" input="SourceAlpha"/><feGaussianBlur stdDeviation="3" result="h"/><feFlood flood-opacity="0.161"/><feComposite operator="in" in2="h"/><feComposite in="SourceGraphic"/></filter><filter id="i" x="664.358" y="-166.518" width="1060.205" height="1243.213" filterUnits="userSpaceOnUse"><feOffset dx="-10" dy="3" input="SourceAlpha"/><feGaussianBlur stdDeviation="3" result="j"/><feFlood flood-opacity="0.161"/><feComposite operator="in" in2="j"/><feComposite in="SourceGraphic"/></filter><filter id="k" x="751.358" y="-160.518" width="1060.205" height="1243.213" filterUnits="userSpaceOnUse"><feOffset dx="-10" dy="3" input="SourceAlpha"/><feGaussianBlur stdDeviation="3" result="l"/><feFlood flood-opacity="0.161"/><feComposite operator="in" in2="l"/><feComposite in="SourceGraphic"/></filter><clipPath id="n"><rect width="1366" height="764"/></clipPath></defs><g id="m" class="a"><rect class="h" width="1366" height="764"/><g class="n" transform="matrix(1, 0, 0, 1, 0, 0)"><rect class="b" width="711" height="1013" transform="translate(-175.16 142.81) rotate(-25)"/></g><g class="m" transform="matrix(1, 0, 0, 1, 0, 0)"><rect class="c" width="711" height="1013" transform="translate(-302.16 152.81) rotate(-25)"/></g><g class="l" transform="matrix(1, 0, 0, 1, 0, 0)"><rect class="d" width="711" height="1013" transform="translate(-421.16 166.81) rotate(-25)"/></g><g class="k" transform="matrix(1, 0, 0, 1, 0, 0)"><rect class="e" width="704" height="1037" transform="translate(994.83 -157.52) rotate(22)"/></g><g class="j" transform="matrix(1, 0, 0, 1, 0, 0)"><rect class="f" width="704" height="1037" transform="translate(1071.83 -160.52) rotate(22)"/></g><g class="i" transform="matrix(1, 0, 0, 1, 0, 0)"><rect class="g" width="704" height="1037" transform="translate(1158.83 -154.52) rotate(22)"/></g></g></svg>